<svg width="283" height="990" viewBox="0 0 283 990" fill="none" xmlns="http://www.w3.org/2000/svg">
<rect opacity="0.8" x="207.955" y="848" width="100" height="100" transform="rotate(42.032 207.955 848)" fill="#E85122"/>
<rect opacity="0.8" x="196.955" width="100" height="100" transform="rotate(42.032 196.955 0)" fill="#233B77"/>
<rect x="19.9995" y="830.119" width="100" height="100" transform="rotate(-47.8332 19.9995 830.119)" fill="#233B77"/>
<rect opacity="0.8" x="199.955" y="675" width="100" height="100" transform="rotate(42.032 199.955 675)" fill="#233B77"/>
<rect x="86.9546" y="588" width="100" height="100" transform="rotate(42.032 86.9546 588)" fill="#E85122"/>
<rect opacity="0.8" x="203.955" y="481" width="100" height="100" transform="rotate(42.032 203.955 481)" fill="#E85122"/>
<rect x="76.9546" y="413" width="100" height="100" transform="rotate(42.032 76.9546 413)" fill="#233B77"/>
<rect opacity="0.8" x="179.955" y="311" width="100" height="100" transform="rotate(42.032 179.955 311)" fill="#233B77"/>
<rect x="66.9546" y="232" width="100" height="100" transform="rotate(42.032 66.9546 232)" fill="#E85122"/>
<rect opacity="0.8" x="186.955" y="146" width="100" height="100" transform="rotate(42.032 186.955 146)" fill="#E85122"/>
<rect x="74.9546" y="55" width="100" height="100" transform="rotate(42.032 74.9546 55)" fill="#233B77"/>
</svg>
